<?xml version="1.0" encoding="iso-8859-1"?>
<!DOCTYPE svg PUBLIC "-//W3C//DTD SVG 20000303 Stylable//EN" "http://www.w3.org/TR/2000/03/WD-SVG-20000303/DTD/svg-20000303-stylable.dtd">
<!-- Creator: CorelDRAW -->
<svg xml:space="preserve" x="-2.47252in" y="-2.59781in" width="0.679728in" height="0.700197in" style="shape-rendering:geometricPrecision; text-rendering:geometricPrecision; image-rendering:optimizeQuality"
     viewBox="-2473 0 680 700">
 <defs>
  <style type="text/css">
   <![CDATA[
    .fil8 {fill:#FFFFFF}
    .fil4 {fill:url(#id2)}
    .fil1 {fill:url(#id3)}
    .fil0 {fill:url(#id4)}
    .fil2 {fill:url(#id5)}
    .fil3 {fill:url(#id6)}
    .fil5 {fill:url(#id7)}
    .fil7 {fill:url(#id8)}
    .fil6 {fill:url(#id9)}
   ]]>
  </style>
  <linearGradient id="id2" x1="-2436" y1="62" x2="-1876" y2="569">
   <stop offset="0" style="stop-color:#D8EDFB"/>
   <stop offset="0.0784314" style="stop-color:#D5ECFB"/>
   <stop offset="0.490196" style="stop-color:#008CCC"/>
   <stop offset="0.968627" style="stop-color:#000000"/>
   <stop offset="1" style="stop-color:#007CC3"/>
  </linearGradient>
  <linearGradient id="id3" x1="-2209" y1="-45" x2="-2074" y2="645">
   <stop offset="0" style="stop-color:#AAA9A9"/>
   <stop offset="0.25098" style="stop-color:#D4D4D4"/>
   <stop offset="1" style="stop-color:#FFFFFF"/>
  </linearGradient>
  <linearGradient id="id4" xlink:href="#id3" x1="-2204" y1="-9" x2="-2083" y2="613">
  </linearGradient>
  <linearGradient id="id5" x1="-2152" y1="57" x2="-2141" y2="567">
   <stop offset="0" style="stop-color:#969595"/>
   <stop offset="0.25098" style="stop-color:#CACACA"/>
   <stop offset="1" style="stop-color:#FFFFFF"/>
  </linearGradient>
  <linearGradient id="id6" xlink:href="#id3" x1="-2201" y1="-17" x2="-2045" y2="574">
  </linearGradient>
  <linearGradient id="id7" x1="-2392" y1="96" x2="-2239" y2="249">
   <stop offset="0" style="stop-color:#9DCD17"/>
   <stop offset="0.729412" style="stop-color:#4FB02B"/>
   <stop offset="1" style="stop-color:#009240"/>
  </linearGradient>
  <linearGradient id="id8" xlink:href="#id7" x1="-2356" y1="337" x2="-2239" y2="453">
  </linearGradient>
  <linearGradient id="id9" xlink:href="#id7" x1="-2182" y1="166" x2="-2025" y2="322">
  </linearGradient>
 </defs>
 <g id="Camada 1">
  <defs>
   <mask id="id0">
    <defs>
  <linearGradient id="id1" x1="-2180" y1="53" x2="-2138" y2="283">
   <stop offset="0" style="stop-opacity:0"/>
   <stop offset="1" style="stop-opacity:1"/>
  </linearGradient>
    </defs>
    <rect style="fill:url(#id1)" x="-2368" y="14" width="418" height="308"/>
   </mask>
  </defs>
  <g>
  </g>
  <g>
  </g>
  <g>
  </g>
  <g>
   <image id="46472668" transform="matrix(1 0 0 1 -2472.52 -2597.81)" x="0" y="2616" width="680" height="682" xlink:href="konqueror_Images\konqueror_ImgID1.png"/>
  </g>
  <ellipse id="46442352" class="fil0" cx="-2156" cy="316" rx="283" ry="285"/>
  <ellipse id="46442440" class="fil1" cx="-2156" cy="316" rx="315" ry="316"/>
  <ellipse id="46442528" class="fil2" cx="-2156" cy="316" rx="315" ry="316"/>
  <ellipse id="46442616" class="fil3" cx="-2156" cy="316" rx="283" ry="285"/>
  <g>
   <image id="46467652" transform="matrix(1 0 0 1 -2425.86 -2637.56)" x="0" y="2685" width="617" height="613" xlink:href="konqueror_Images\konqueror_ImgID2.png"/>
  </g>
  <ellipse id="46442792" class="fil4" cx="-2156" cy="316" rx="268" ry="267"/>
  <path id="46442880" class="fil5" d="M-2326 261l25 9 0 14 -18 5 -15 -8c0,0 -9,0 -17,-9 -7,-9 -14,-17 -14,-17l-17 -8 -9 18c0,0 -7,3 0,7 6,4 21,12 21,12l22 14 0 19c0,0 -9,11 -17,6 -7,-5 -15,-17 -15,-17l-13 -13 -29 -5c-4,-1 3,-11 3,-19 0,-35 25,-80 49,-114 8,-12 16,-21 24,-28 74,-63 119,-68 137,-70l40 -6 18 7 -4 28 5 19 -21 14 -31 3 -9 3c0,0 2,7 -11,-3 -13,-11 -6,-9 -15,-16 -9,-6 -13,-10 -13,-10l-17 15 5 19 12 22 -9 23c0,0 -17,12 -23,15 -6,2 -16,10 -16,10l-20 11 -11 7 -6 9 3 16 6 18z"/>
  <path id="46442968" class="fil6" d="M-2132 239c-6,2 -30,29 -30,29l1 32 20 18 10 11 30 3 19 7 16 24 -5 41 4 52 17 10 29 -9 28 -30 15 -41 14 -30 6 -15 8 -29 15 -19 12 -23 32 8 -18 -64 -25 -49 -41 -46 -53 -38 -30 -12 -18 28 -10 18 -27 23 -15 3c0,0 -5,15 -8,21 -2,6 4,29 4,29l0 48z"/>
  <path id="46443056" class="fil7" d="M-2278 551c1,2 0,-24 0,-30 0,-7 1,-22 1,-22l26 -42c0,0 24,-24 30,-35 6,-12 24,-26 20,-32 -3,-6 -19,-27 -19,-27l-35 -24 -32 -26c0,0 -20,-1 -27,-4 -6,-3 -25,5 -25,5l-24 30 19 37 24 26 5 44 4 35 -1 47c0,0 33,15 34,18z"/>
  <path id="46443144" class="fil8" style="mask:url(#id0)" d="M-2159 14c115,0 209,69 209,154 0,85 -94,154 -209,154 -115,0 -209,-69 -209,-154 0,-85 94,-154 209,-154z"/>
  <g>
  </g>
  <g>
  </g>
  <g>
  </g>
  <g>
   <g>
   </g>
   <g>
   </g>
  </g>
  <g>
   <g>
   </g>
  </g>
 </g>
</svg>
