/* XPM */
static char * karm_xpm[] = {
"32 32 10 1",
" 	c None",
".	c #808080",
"+	c #000000",
"@	c #C0C0C0",
"#	c #A0A0A4",
"$	c #FFFFFF",
"%	c #FFC0C0",
"&	c #C00000",
"*	c #FF0000",
"=	c #585858",
"                                ",
"                                ",
"                                ",
"                                ",
"                                ",
"                                ",
"                                ",
"                                ",
"                                ",
"                                ",
"                                ",
"                    .+++.       ",
"              @.@   +.#$+   @   ",
"             @+%+@@+++++++@@+   ",
"             .&*%++.......++.#  ",
"             @+&+...@@@@@...+   ",
"              @+..@@$$.$$@@..+  ",
"              +..@$.$$@$$.$@..+ ",
"              +.@$$$@$.$*$$$@.+ ",
"             .=.@.$$$$.$*$$.@..+",
"             +.@$$@$$$.*$$@$$@.+",
"             +.@$$$$$$.*$$$$$@.+",
"             +.@.@$$$$*$$$$@.@.+",
"             +.@$$$$$$*$$$$$$@.+",
"             +.@$$@$$$$$$$@$$@.+",
"             .=.@.$$$$$$$$$.@..+",
"              +.@$$$@$$$@$$$@.+ ",
"              +..@$.$$@$$.$@..+ ",
"               +..@@$$.$$@@..+  ",
"                +...@@@@@...+   ",
"                 ++.......++    ",
"                  +++++++++     "};
