/* XPM */
static char * Logo48x44_xpm[] = {
"48 44 256 2",
"  	c None",
". 	c #1E0604",
"+ 	c #99841E",
"@ 	c #E1C259",
"# 	c #B5A344",
"$ 	c #304494",
"% 	c #964634",
"& 	c #DE826C",
"* 	c #CDA338",
"= 	c #726238",
"- 	c #ECE3BE",
"; 	c #848485",
"> 	c #D6C694",
", 	c #8C6C18",
"' 	c #9C0204",
") 	c #E2A294",
"! 	c #922224",
"~ 	c #5B6591",
"{ 	c #A4A2AC",
"] 	c #D0B450",
"^ 	c #979595",
"/ 	c #664A24",
"( 	c #E0D39C",
"_ 	c #6E7280",
": 	c #E1B637",
"< 	c #C44220",
"[ 	c #C185AC",
"} 	c #A8942C",
"| 	c #FED245",
"1 	c #BEB28C",
"2 	c #9395AC",
"3 	c #F1C53C",
"4 	c #C06428",
"5 	c #B4261C",
"6 	c #525357",
"7 	c #CBB66A",
"8 	c #925818",
"9 	c #C50204",
"0 	c #E7D5A5",
"a 	c #C5B05E",
"b 	c #676571",
"c 	c #BD972C",
"d 	c #415296",
"e 	c #7F85B8",
"f 	c #C67274",
"g 	c #AA824C",
"h 	c #B6160C",
"i 	c #C89229",
"j 	c #ECC2AC",
"k 	c #C73339",
"l 	c #B4B4B4",
"m 	c #CDBB72",
"n 	c #B4A460",
"o 	c #F8F4E4",
"p 	c #777776",
"q 	c #A693A4",
"r 	c #A88526",
"s 	c #CEA26C",
"t 	c #EECA5F",
"u 	c #915980",
"v 	c #4E5C99",
"w 	c #7C6528",
"x 	c #A9995C",
"y 	c #685A3C",
"z 	c #BE96A4",
"A 	c #EBD3D7",
"B 	c #C2BDC2",
"C 	c #D5C482",
"D 	c #C6AABC",
"E 	c #9A9B9C",
"F 	c #DDAA3B",
"G 	c #AEABAF",
"H 	c #CB9D31",
"I 	c #D7BB6C",
"J 	c #C5A237",
"K 	c #898A8A",
"L 	c #FDCE44",
"M 	c #9E5484",
"N 	c #923A1C",
"O 	c #606BA6",
"P 	c #B2659B",
"Q 	c #CD2916",
"R 	c #CB0C0C",
"S 	c #696B6D",
"T 	c #BABAC7",
"U 	c #777CAF",
"V 	c #A54589",
"W 	c #F5EED3",
"X 	c #DAB2D4",
"Y 	c #E8DDB5",
"Z 	c #475596",
"` 	c #E4C4DC",
" .	c #7C562C",
"..	c #E2C574",
"+.	c #D8BB58",
"@.	c #E8BC3E",
"#.	c #CE5634",
"$.	c #AF9A38",
"%.	c #999DAB",
"&.	c #B274A0",
"*.	c #CE9434",
"=.	c #B3B4D0",
"-.	c #F9CE4D",
";.	c #4C2414",
">.	c #A08D1C",
",.	c #96781C",
"'.	c #D6D4D7",
").	c #838DBC",
"!.	c #CD1511",
"~.	c #D2BD75",
"{.	c #826E20",
"].	c #AD5B94",
"^.	c #A94D8C",
"/.	c #C8C4D2",
"(.	c #A69674",
"_.	c #C99626",
":.	c #7F7E7F",
"<.	c #EA9A94",
"[.	c #D7CA89",
"}.	c #BFAA4E",
"|.	c #D32821",
"1.	c #666EAC",
"2.	c #F2E6CD",
"3.	c #A02418",
"4.	c #5A65A1",
"5.	c #A0A4CA",
"6.	c #CE0204",
"7.	c #D23328",
"8.	c #9F9DA4",
"9.	c #623614",
"0.	c #6E0204",
"a.	c #263E94",
"b.	c #AE1E34",
"c.	c #721E0C",
"d.	c #9F7B94",
"e.	c #E2B294",
"f.	c #99287C",
"g.	c #46120C",
"h.	c #926684",
"i.	c #AA5A14",
"j.	c #A13C85",
"k.	c #724664",
"l.	c #D94346",
"m.	c #CA7244",
"n.	c #79566E",
"o.	c #C66E6C",
"p.	c #D6BE94",
"q.	c #ECBCA8",
"r.	c #FADE84",
"s.	c #A67A4C",
"t.	c #E0CE99",
"u.	c #D6AECC",
"v.	c #9E8C50",
"w.	c #C29CB4",
"x.	c #394B94",
"y.	c #842C18",
"z.	c #D1CDD9",
"A.	c #7E7147",
"B.	c #BA3E1C",
"C.	c #E7CBDE",
"D.	c #E0DCD4",
"E.	c #6C74AC",
"F.	c #BA7E4C",
"G.	c #CABED4",
"H.	c #C58CB6",
"I.	c #D83C38",
"J.	c #D28C68",
"K.	c #666664",
"L.	c #5A5860",
"M.	c #AC0204",
"N.	c #CF1B1C",
"O.	c #FCFCFC",
"P.	c #B66D9F",
"Q.	c #CAAA44",
"R.	c #7E5070",
"S.	c #C1A961",
"T.	c #7E4E3C",
"U.	c #D44E38",
"V.	c #F2CABC",
"W.	c #A88C28",
"X.	c #462E14",
"Y.	c #DEB6D4",
"Z.	c #DEBE54",
"`.	c #D6A5C9",
" +	c #E8B468",
".+	c #BF655C",
"++	c #525A7C",
"@+	c #947E38",
"#+	c #7A3614",
"$+	c #BB73A2",
"%+	c #D9B337",
"&+	c #BE2A14",
"*+	c #B89E4C",
"=+	c #E2BED4",
"-+	c #CE9DC2",
";+	c #DAA270",
">+	c #DAC2D4",
",+	c #AF9E5C",
"'+	c #F0DADC",
")+	c #D25A40",
"!+	c #DAAE3C",
"~+	c #D27A64",
"{+	c #7A5E74",
"]+	c #4D5379",
"^+	c #ABADD1",
"/+	c #DACE9C",
"(+	c #8A5E14",
"_+	c #727AB4",
":+	c #F2C3C4",
"<+	c #6B6A64",
"[+	c #AB5491",
"}+	c #E6CA54",
"|+	c #BE2214",
"1+	c #D6B664",
"2+	c #706D74",
"3+	c #8B8EB1",
"4+	c #F2CAC4",
"5+	c #C69E54",
"6+	c #B2563C",
"7+	c #C27A74",
"8+	c #A69A9C",
"9+	c #AA8A54",
"0+	c #BE4A1C",
"a+	c #AE7AA4",
"b+	c #DABAD4",
"c+	c #BE7AAC",
"d+	c #DAB65C",
"e+	c #8B8582",
"f+	c #ACA4A4",
"g+	c #C86638",
"h+	c #DA524C",
"i+	c #D21214",
"j+	c #E2CA84",
"k+	c #9E969C",
"l+	c #9A4E2C",
"m+	c #5C5E64",
"n+	c #C61604",
"o+	c #BFB5A7",
"p+	c #9196C1",
"q+	c #EAC25C",
"r+	c #B69A4C",
"s+	c #E2AA54",
"t+	c #C1A44E",
"u+	c #7A7260",
"v+	c #9A2E7C",
"w+	c #6E0A0C",
"x+	c #A18324",
"y+	c #7F7A80",
"z+	c #C992B4",
"A+	c #8F8E8E",
"B+	c #404E94",
"C+	c #D4AC37",
"D+	c #EABA64",
"E+	c #CAB684",
"F+	c #C6B270",
"G+	c #D6BE80",
"  U.i+i+i+i+i+i+i+i+i+i+i+i+i+i+i+i+i+i+i+i+i+i+i+i+i+i+i+i+k                                   ",
"  I.6.6.6.6.6.6.6.6.6.6.6.6.6.6.R 6.6.6.6.6.6.6.6.6.6.6.6.6.k                                   ",
".+!.6.6.6.6.6.6.6.6.6.N.|.U.U.)+~+!.6.6.6.6.6.6.6.6.6.6.6.6.I.                                  ",
"' 9 6.6.6.6.6.6.6.6.R J.p.G+~.1+s |.6.6.R 7.R 6.6.6.6.6.6.6.b.                                  ",
"' 9 6.6.6.6.!.6.6.6.i+;+[.~.m 7 S.m.#.|.g+*+4 i+6.6.6.6.6.6.k                                   ",
"' 6.6.6.6.7.:+j h+& 0 /+C C ~.m a }.S.}.# $.} W.< 6.6.6.6.6.b.                                  ",
"' 6.6.6.|.q.W - 0 0 ( /+C m m m F+S.# }.# $.} W.W.0+6.6.6.6.l.                                  ",
"' 9 6.7.V.o 2.- Y ( t./+[.C m 1+a }.a # # r+} } >.i.R 6.6.6.l.                                  ",
"' 9 i+) o 2.2.- Y ( t.[.C ~.m m 7 }.}.# *+$.} } >.y.' 9 6.6.l.                                  ",
"' 9 6.4 [.W 2.Y Y 0 t.( C 7 m # # a }.}.# $.} W.W.#+0.' 9 6.l.                                  ",
"' 6.6.!.e.W 2.Y Y 0 t.m } ,.~.@+{.+ # # $.$.} } W.,.(+(+h 6.l.                                  ",
"' 9 6.|.A W 2.- Y 0 ~.+ / ;.m  .g.9., $.# $.$.} >.>.@++ |+R l.                                  ",
"' R <.'+o W - - Y ( } X.. ;.m 9+c.y.l+v.E E E 8.E E k+E 8.{ %.8.8.2 8.%.%.%.%.k+E E E E E E E l ",
"' n+:+O.o W 2.Y Y ( F+(.(.,+~.m r+r+*+n E E E E 8.E E E E %.k+E E 8.E E E E E %.E E E E E E ^ l ",
"' R :+o o W 2.- Y ( m }.# *+m 7 } + u+K E E 8.E E E E %.E E k+E E E E E E E E 2 E E E E E E E l ",
"' R :+O.o W 2.Y Y Y r+ .(+N 5+7 &+! S :.E E E E E E E E E %.%.{ { 8+k+E E E %.8.E E E E E E ^ l ",
"' Q 4+o W W 2.Y Y ( > T.0.' J.}.M.! S ; E E E E E 8.E E E E E D z+z+H.8.E 8.8.E 8.8.E E E %.^ l ",
"' &+g x+> W 2.- Y 0 ( C s.% F.7 6+9+S :.E E E E E ^ 8.f+E 8.f+-+z+[ c+w.q z P &.8.E E E E 8.E l ",
"' 6.n+n+#.- 2.- Y ( ( /+[.m m m a ,+K.; 8.E E E E %.B A B >+u.-+z+H.$+$+P.].[+V ].f+E k+E E E l ",
"' 9 6.6.7.A 2.- Y ( t./+C C ~.m a ,+K.; E E 8.E E /.'+` =+Y.`.-+H.H.c+P.P ].^.^.j.d.; E E E k+l ",
"' 9 6.N.q.W 2.- Y ( t./+C C m m a ,+K.; E E E E { C.A C.=+Y.`.-+H.[ c+P.P ].^.V V n.2+A+E %.E l ",
"' 6.6.i+s - 2.- Y 0 ( /+[.m m 7 a x m+y+2 2 E 2 E H.C.C.b+u.`.H.].[+].P P ].^.V V n.{+^ E E ^ l ",
"' 9 6.6.6.4 C - Y -.L L | -.| | | | t L | | L -.-.-.-.-.| -.-.t | -.;+^.].].^.^.j.f.v+q E %.E l ",
"' 9 6.6.6.R < F+C 3 L -.| | -.| L -.q+..L L | @ -.| | L L L L L L L ] u [+[+^.V j.f.v+d.; ^ E l ",
"' 9 6.6.6.6.6.B._.3 L L L L L | I A+1._++.Z.n d S S.-.L L L L L L L +.^ d.].^.V j.f.f.h._ K E l ",
"' 9 6.6.6.6.6.Q i 3 L L L L L | E+_+E.O ~ ~ v x.$ v +.L L L L L L L @ 8+&.].^.V j.f.f.u <+e+E l ",
"' 9 6.6.6.6.6.Q *.3 L L | L -.}+E U E.E.4.v Z d x.++J @.| | L L L L Z.[ P ].^.V V j.V n.S ; E l ",
"' 9 6.6.6.6.6.Q *.3 L L -.1 ^+p+).e U E.O 4.v Z d x.S p t+| L L L L  +P.P [+^.V j.k.6 S p K E l ",
"' 9 6.6.6.6.6.Q _.3 L L j+=.^+5.p+).E.v d d v Z Z x.$ a.S L L L L L  +$+P [+^.V j.R.K.K E E E l ",
"' 9 6.6.6.6.6.Q *.3 L L A+p+^+5.%.U v L.= u+m+Z Z Z B+$ B+t+@.L L L D+&.P.[+^.V ^.u 2+K E E ^ l ",
"' 9 6.6.6.6.6.Q *.3 | L Z.o+=.=.5.4.y {.r H t+:.v Z B+$ ]+v.!+L L L  +].^.V V V [+R.K.:.^ %.E l ",
"' 9 6.6.6.6.6.Q *.3 L L L z./.=.=.b = + %+-.L k+4.v Z v w + * L L L D+[+V M u [+u 6 b ; E E E G ",
"' 9 6.6.6.6.6.Q *.3 L -.0 '.z.T =.^ x+* 3 | @ E.4.4.Z ]+A.c @.L L | s+M n.6 b p :.p ; ^ E E E A+",
"' 9 6.6.6.6.6.Q *.3 L t D.D.z./.T G { @ t 1 3+E.1.4.4.Z ~ : L L L L s+].L.K.; ^ E A+^ %.E E %.; ",
"' 9 6.6.6.6.6.Q *.3 L L l ).5.z./.=.^+5.p+).e _+E.4.v Z _ J 3 L L | d+e+<+:.E 8.%.E E 8.E 8.8.T ",
"' 9 6.6.6.6.6.Q *.-.| L 1+e+:.5.'./.=.^+5.p+3+e O d d ]+{.W.C+L L L +.A+A+A+^ E 8.8.E E E E ^ l ",
"' 9 6.6.6.6.6.Q *.3 L L | L Q.T '.z.T =.5.5.p+e ~ y w ,.x+c @.L L | +.K K K K ; ; e+; ; ; K     ",
"' 6.6.6.6.6.6.Q *.3 L L L L q+3+5.=.O d Z e e 1.y w x+Q.C+@.L L L L Q.K.K.K.K.S S S S <+K.p     ",
"' M.M.M.M.M.M.5 i 3 L L L L L ] p 4.2+= A.S Z v u+r !+L 3 L | L L | +.; :.; :.:.:.y+p ; :.e+    ",
"' ' ' ' ' ' ' 3.*.3 L L L L L | L Q.W.x+J t+*+r + c 3 L | | L L L L ..                          ",
".+.+o.o.o.o.f 7+H 3 L L L L L | L 3 : %+@.L -.: C+%+3 L L L L L L L r.                          ",
"                * 3 | | | | | | | | | L | | L | | | | | L | | | L L r.                          ",
"                * F F F F F F F F F F F F F F !+!+!+F F F * F F F 0                             ",
"                H i i i i _.i i _.i _._.i _.i i i i i _.i _.i i i 0                             "};
