<?xml version="1.0" encoding="iso-8859-1"?>
<!DOCTYPE svg PUBLIC "-//W3C//DTD SVG 20000303 Stylable//EN" "http://www.w3.org/TR/2000/03/WD-SVG-20000303/DTD/svg-20000303-stylable.dtd">
<!-- Creator: CorelDRAW -->
<svg xml:space="preserve" x="0.581748in" y="0.441425in" width="0.868961in" height="0.941823in" style="shape-rendering:geometricPrecision; text-rendering:geometricPrecision; image-rendering:optimizeQuality"
     viewBox="582 0 869 941">
 <defs>
  <style type="text/css">
   <![CDATA[
    .fil0 {fill:#00FFFF}
    .fil1 {fill:#FFFFFF}
    .fil2 {fill:url(#id8)}
    .fil5 {fill:url(#id9)}
    .fil6 {fill:url(#id10)}
    .fil4 {fill:url(#id11)}
    .fil3 {fill:url(#id12)}
   ]]>
  </style>
  <linearGradient id="id8" x1="1266" y1="552" x2="995" y2="870">
   <stop offset="0" style="stop-color:#96BEFA"/>
   <stop offset="1" style="stop-color:#C9E6FF"/>
  </linearGradient>
  <linearGradient id="id9" x1="1162" y1="-14" x2="798" y2="632">
   <stop offset="0" style="stop-color:#1E55A8"/>
   <stop offset="0.411765" style="stop-color:#1E72D3"/>
   <stop offset="1" style="stop-color:#1F8FFF"/>
  </linearGradient>
  <linearGradient id="id10" x1="819" y1="916" x2="982" y2="642">
   <stop offset="0" style="stop-color:#298BFC"/>
   <stop offset="0.74902" style="stop-color:#94C5FD"/>
   <stop offset="1" style="stop-color:#FFFFFF"/>
  </linearGradient>
  <linearGradient id="id11" x1="1161" y1="-24" x2="800" y2="616">
   <stop offset="0" style="stop-color:#03193B"/>
   <stop offset="0.411765" style="stop-color:#0F396A"/>
   <stop offset="1" style="stop-color:#1C5A99"/>
  </linearGradient>
  <linearGradient id="id12" x1="1237" y1="-88" x2="759" y2="760">
   <stop offset="0" style="stop-color:#96BEFA"/>
   <stop offset="0.411765" style="stop-color:#C5DCFC"/>
   <stop offset="1" style="stop-color:#F5FAFF"/>
  </linearGradient>
 </defs>
 <g id="Camada 1">
  <g>
  </g>
  <g>
  </g>
  <g>
  </g>
  <g>
  </g>
  <g>
  </g>
  <g>
  </g>
  <g>
  </g>
  <g>
   <defs>
    <mask id="id0">
     <defs>
  <linearGradient id="id1" x1="1057" y1="662" x2="964" y2="875">
   <stop offset="0" style="stop-opacity:0"/>
   <stop offset="0.458824" style="stop-opacity:0.501961"/>
   <stop offset="1" style="stop-opacity:1"/>
  </linearGradient>
     </defs>
     <rect style="fill:url(#id1)" x="760" y="643" width="502" height="251"/>
    </mask>
    <mask id="id2">
     <defs>
  <linearGradient id="id3" x1="1294" y1="623" x2="967" y2="799">
   <stop offset="0" style="stop-opacity:0"/>
   <stop offset="0.439216" style="stop-opacity:0.501961"/>
   <stop offset="1" style="stop-opacity:1"/>
  </linearGradient>
     </defs>
     <rect style="fill:url(#id3)" x="995" y="547" width="271" height="329"/>
    </mask>
    <mask id="id4">
     <defs>
  <linearGradient id="id5" x1="847" y1="461" x2="1142" y2="183">
   <stop offset="0" style="stop-opacity:0"/>
   <stop offset="0.34902" style="stop-opacity:0.501961"/>
   <stop offset="1" style="stop-opacity:1"/>
  </linearGradient>
     </defs>
     <rect style="fill:url(#id5)" x="641" y="27" width="707" height="590"/>
    </mask>
    <mask id="id6">
     <defs>
  <linearGradient id="id7" x1="876" y1="807" x2="925" y2="751">
   <stop offset="0" style="stop-opacity:0"/>
   <stop offset="0.360784" style="stop-opacity:0.501961"/>
   <stop offset="1" style="stop-opacity:1"/>
  </linearGradient>
     </defs>
     <rect style="fill:url(#id7)" x="771" y="645" width="259" height="268"/>
    </mask>
   </defs>
   <path id="46468732" class="fil0" d="M981 562l197 -58 8 176 -203 -15 -2 -103z"/>
   <path id="46468644" class="fil0" d="M734 759l257 182 306 -177c9,-5 -12,-150 -285,-145 -240,1 -279,140 -278,140z"/>
   <path id="46468556" class="fil1" style="mask:url(#id0)" d="M760 739l230 155 272 -150c0,0 -26,-109 -237,-101 -207,-9 -272,91 -265,96z"/>
   <path id="46468468" class="fil2" style="mask:url(#id2)" d="M1002 876l257 -130c0,0 -125,-199 -257,130z"/>
   <path id="46468380" class="fil0" d="M885 0l500 21c57,2 78,55 59,90l-302 532c-22,39 -60,45 -107,20l-420 -226c-54,-30 -26,-66 -24,-70l232 -342c15,-23 34,-26 62,-25z"/>
   <path id="46468292" class="fil3" d="M886 14l456 20c51,2 71,52 53,84l-276 499c-20,37 -54,42 -97,19l-388 -207c-51,-28 -31,-50 -17,-71l212 -321c14,-21 31,-24 57,-23z"/>
   <path id="46468204" class="fil1" style="mask:url(#id4)" d="M892 28l384 31c45,4 85,25 68,57l-255 485c-11,21 -35,21 -73,0l-345 -189c-46,-25 -29,-50 -16,-70l197 -298c13,-20 18,-18 40,-16z"/>
   <path id="46468116" class="fil4" d="M904 60l350 17c38,2 41,26 26,50l-238 388c-12,20 -27,17 -30,16l-304 -136c-43,-20 -34,-28 -13,-59l170 -262c12,-17 20,-15 39,-14z"/>
   <path id="46468028" class="fil5" d="M909 73l336 22c36,2 39,23 25,48l-208 380c-7,13 -19,31 -64,9l-281 -133c-41,-19 -32,-26 -13,-56l159 -249c19,-29 28,-22 46,-21z"/>
   <path id="46467940" class="fil6" style="mask:url(#id6)" d="M779 745l192 123c0,0 86,-148 -32,-159 -108,-19 -195,14 -160,36z"/>
  </g>
  <g>
  </g>
  <g>
   <g>
   </g>
   <g>
   </g>
  </g>
  <g>
   <g>
   </g>
  </g>
 </g>
</svg>
