<?xml version="1.0" encoding="iso-8859-1"?>
<!DOCTYPE svg PUBLIC "-//W3C//DTD SVG 20000303 Stylable//EN" "http://www.w3.org/TR/2000/03/WD-SVG-20000303/DTD/svg-20000303-stylable.dtd">
<!-- Creator: CorelDRAW -->
<svg xml:space="preserve" x="-1.63492in" y="-1.91138in" width="0.576657in" height="0.617232in" style="shape-rendering:geometricPrecision; text-rendering:geometricPrecision; image-rendering:optimizeQuality"
     viewBox="-1635 0 577 618">
 <defs>
  <style type="text/css">
   <![CDATA[
    .str0 {stroke:#000000;stroke-width:3}
    .str1 {stroke:#4C4C4C;stroke-width:28;stroke-linecap:round;stroke-linejoin:round}
    .fil2 {fill:none}
    .fil1 {fill:#000000}
    .fil3 {fill:url(#id2)}
    .fil0 {fill:url(#id3)}
   ]]>
  </style>
  <linearGradient id="id2" x1="-1500" y1="15" x2="-1286" y2="290">
   <stop offset="0" style="stop-color:#FFFFFF"/>
   <stop offset="1" style="stop-color:#FFFFFF"/>
  </linearGradient>
  <radialGradient id="id3" cx="-1355" cy="446" r="289" fx="-1355" fy="446">
   <stop offset="0" style="stop-color:#FFFF00"/>
   <stop offset="0.788235" style="stop-color:#FF7F00"/>
   <stop offset="1" style="stop-color:#FF0000"/>
  </radialGradient>
 </defs>
 <g id="Camada 1">
  <g>
   <defs>
    <mask id="id0">
     <defs>
  <linearGradient id="id1" x1="-1427" y1="50" x2="-1358" y2="255">
   <stop offset="0" style="stop-opacity:0"/>
   <stop offset="0.458824" style="stop-opacity:0.501961"/>
   <stop offset="1" style="stop-opacity:1"/>
  </linearGradient>
     </defs>
     <rect style="fill:url(#id1)" x="-1588" y="14" width="391" height="277"/>
    </mask>
   </defs>
   <g>
    <image id="46472756" transform="matrix(1 0 0 1 -1629.69 -1911.38)" x="0" y="1918" width="571" height="611" xlink:href="smily_Images\smily_ImgID1.png"/>
   </g>
   <ellipse id="46473108" class="fil0" cx="-1365" cy="290" rx="270" ry="289"/>
   <ellipse id="46473196" class="fil1 str0" cx="-1446" cy="213" rx="16" ry="64"/>
   <ellipse id="46473284" class="fil1 str0" cx="-1290" cy="213" rx="16" ry="64"/>
   <path id="46473372" class="fil2 str1" d="M-1176 286c0,4 0,7 0,11 0,112 -85,204 -189,204 -105,0 -190,-92 -190,-204 0,-4 0,-8 0,-11"/>
   <path id="46440240" class="fil3" style="mask:url(#id0)" d="M-1371 20c96,0 174,60 174,134 0,74 -78,134 -174,134 -95,0 -173,-60 -173,-134 0,-74 78,-134 173,-134z"/>
  </g>
  <g>
  </g>
  <g>
  </g>
  <g>
  </g>
  <g>
  </g>
  <g>
  </g>
  <g>
   <g>
   </g>
   <g>
   </g>
  </g>
  <g>
   <g>
   </g>
  </g>
 </g>
</svg>
